<?xml version="1.0" standalone="no"?>
<!DOCTYPE svg PUBLIC "-//W3C//DTD SVG 20010904//EN"
 "http://www.w3.org/TR/2001/REC-SVG-20010904/DTD/svg10.dtd">
<svg version="1.0" xmlns="http://www.w3.org/2000/svg"
 width="512.000000pt" height="512.000000pt" viewBox="0 0 512.000000 512.000000"
 preserveAspectRatio="xMidYMid meet">

<g transform="translate(0.000000,512.000000) scale(0.100000,-0.100000)"
fill="#000000" stroke="none">
<path d="M585 5015 l-25 -24 0 -991 0 -991 25 -24 24 -25 1951 0 1951 0 24 25
25 24 0 991 0 991 -25 24 -24 25 -1951 0 -1951 0 -24 -25z m3815 -1015 l0
-880 -1840 0 -1840 0 0 880 0 880 1840 0 1840 0 0 -880z"/>
<path d="M1063 4698 c-12 -13 -24 -40 -28 -60 -8 -44 -28 -63 -75 -73 -19 -4
-45 -16 -57 -28 l-23 -20 0 -517 0 -517 23 -20 c12 -12 39 -24 59 -28 44 -8
63 -28 73 -75 4 -19 16 -45 28 -57 l20 -23 1477 0 1477 0 20 23 c12 12 24 38
28 57 10 47 29 67 73 75 20 4 47 16 60 28 l22 20 0 517 0 517 -22 20 c-13 12
-40 24 -60 28 -44 8 -63 28 -73 75 -4 19 -16 45 -28 58 l-20 22 -1477 0 -1477
0 -20 -22z m974 -207 c-75 -80 -129 -171 -165 -279 -23 -67 -26 -94 -26 -212
0 -120 3 -144 27 -215 35 -106 88 -194 166 -277 l63 -68 -461 0 c-412 0 -461
2 -461 16 0 20 -104 124 -124 124 -14 0 -16 46 -16 420 0 374 2 420 16 420 20
0 124 104 124 124 0 14 49 16 461 16 l461 0 -65 -69z m675 45 c92 -28 162 -70
233 -141 115 -114 167 -236 166 -393 0 -159 -51 -282 -161 -392 -111 -111
-234 -161 -393 -161 -154 0 -277 51 -387 161 -119 118 -163 225 -163 390 0
119 20 194 78 291 36 59 128 151 185 186 50 31 134 62 193 73 65 11 187 4 249
-14z m1228 8 c0 -20 104 -124 124 -124 14 0 16 -46 16 -420 0 -374 -2 -420
-16 -420 -8 0 -40 -24 -70 -54 -30 -30 -54 -62 -54 -70 0 -14 -49 -16 -461
-16 l-461 0 63 68 c78 83 131 171 166 277 24 71 27 95 27 215 0 120 -3 144
-27 215 -35 106 -88 194 -166 277 l-63 68 461 0 c412 0 461 -2 461 -16z"/>
<path d="M2480 4437 c0 -41 -3 -45 -52 -77 -76 -50 -111 -121 -106 -211 7
-123 90 -211 214 -228 62 -9 104 -42 104 -82 0 -26 -52 -79 -78 -79 -25 0 -69
35 -77 60 -6 18 -15 20 -86 20 -78 0 -79 0 -79 -25 0 -62 61 -155 122 -186 35
-18 38 -22 38 -64 l0 -45 80 0 80 0 0 45 c0 41 3 45 35 61 44 20 101 85 116
131 6 19 9 63 7 98 -7 120 -91 208 -214 224 -62 9 -104 42 -104 82 0 26 52 79
78 79 25 0 69 -35 77 -60 6 -18 15 -20 86 -20 l79 0 0 28 c-1 62 -64 153 -131
188 -25 13 -29 20 -29 59 l0 45 -80 0 -80 0 0 -43z"/>
<path d="M1202 2787 c-46 -14 -115 -78 -136 -125 -17 -37 -21 -40 -43 -31 -33
12 -88 11 -137 -3 -55 -16 -138 -99 -154 -154 -8 -29 -12 -147 -12 -397 l0
-357 -42 23 c-66 34 -167 31 -231 -6 -115 -68 -157 -208 -99 -329 15 -29 136
-157 385 -405 l363 -363 52 0 52 0 0 -200 0 -200 -560 0 -560 0 0 -80 0 -80
2480 0 2480 0 0 80 0 80 -605 0 -605 0 0 200 0 200 57 0 57 0 363 363 c249
248 370 376 385 405 58 121 16 261 -99 329 -64 37 -165 40 -230 6 l-43 -23 0
357 c0 250 -4 368 -12 397 -16 55 -99 138 -154 154 -49 14 -104 15 -137 3 -22
-9 -26 -6 -43 31 -35 77 -129 138 -214 138 -85 0 -179 -61 -214 -138 -17 -37
-21 -40 -43 -31 -94 35 -232 -29 -277 -129 -17 -37 -21 -40 -43 -31 -33 12
-88 11 -137 -3 -55 -16 -138 -99 -154 -154 -9 -30 -12 -168 -12 -497 l0 -455
-23 -6 c-12 -3 -66 -50 -120 -104 l-97 -99 0 -457 0 -456 -120 0 -120 0 0 456
0 457 -97 99 c-54 54 -108 101 -120 104 l-23 6 0 455 c0 329 -3 467 -12 497
-16 55 -99 138 -154 154 -49 14 -104 15 -137 3 -22 -9 -26 -6 -43 31 -45 100
-183 164 -277 129 -22 -9 -26 -6 -43 31 -22 50 -91 111 -142 126 -47 14 -105
14 -150 -1z m129 -166 l24 -19 3 -621 2 -621 -80 0 -80 0 0 615 0 616 25 24
c29 30 74 32 106 6z m2480 0 l24 -19 3 -621 2 -621 -80 0 -80 0 0 615 0 616
25 24 c29 30 74 32 106 6z m-2800 -160 l24 -19 3 -519 3 -518 -81 80 -80 80 0
433 0 433 25 24 c29 30 74 32 106 6z m640 0 l24 -19 3 -541 3 -541 -81 0 -80
0 0 535 0 536 25 24 c29 30 74 32 106 6z m1840 0 l24 -19 3 -541 3 -541 -81 0
-80 0 0 535 0 536 25 24 c29 30 74 32 106 6z m640 0 l24 -19 3 -439 3 -438
-81 -80 -80 -80 0 513 0 513 25 24 c29 30 74 32 106 6z m-2160 -160 l24 -19 3
-461 3 -461 -81 0 -80 0 0 455 0 456 25 24 c29 30 74 32 106 6z m1200 0 l24
-19 3 -461 3 -461 -81 0 -80 0 0 455 0 456 25 24 c29 30 74 32 106 6z m-2356
-901 l201 -200 554 0 554 0 58 -57 58 -57 0 -423 0 -423 -440 0 -440 0 0 200
0 200 160 0 160 0 0 80 0 80 -258 0 -257 0 -343 343 c-311 311 -342 346 -342
376 0 23 9 41 30 63 27 26 36 30 67 25 31 -5 67 -37 238 -207z m3716 181 c20
-21 29 -39 29 -62 0 -30 -32 -66 -337 -375 l-338 -341 -262 -1 -263 -2 0 -80
0 -80 155 0 155 0 0 -200 0 -200 -435 0 -435 0 0 423 0 423 58 57 58 57 554 0
553 0 207 205 c184 182 210 205 239 205 23 0 41 -9 62 -29z"/>
</g>
</svg>
