<?xml version="1.0" standalone="no"?>
<!DOCTYPE svg PUBLIC "-//W3C//DTD SVG 20010904//EN"
 "http://www.w3.org/TR/2001/REC-SVG-20010904/DTD/svg10.dtd">
<svg version="1.0" xmlns="http://www.w3.org/2000/svg"
 width="512.000000pt" height="512.000000pt" viewBox="0 0 512.000000 512.000000"
 preserveAspectRatio="xMidYMid meet">

<g transform="translate(0.000000,512.000000) scale(0.100000,-0.100000)"
fill="#000000" stroke="none">
<path d="M1769 5105 c-14 -8 -32 -28 -39 -45 l-12 -30 -649 0 -649 0 0 -1288
0 -1287 -185 -185 -185 -185 0 -596 0 -596 27 -28 28 -27 157 4 157 3 3 -275
3 -275 29 -53 c67 -120 203 -176 326 -133 l54 19 39 -40 c56 -58 117 -82 202
-82 56 0 80 5 121 26 56 30 108 85 126 135 l12 32 81 -6 c73 -5 88 -3 137 19
63 29 117 81 143 138 18 39 19 40 54 33 131 -28 261 34 317 152 24 50 24 52
24 408 l0 357 -22 0 c-13 0 -53 3 -90 6 l-67 7 -3 -344 c-3 -382 -3 -381 -69
-400 -51 -16 -94 8 -108 59 -7 22 -11 165 -11 355 l0 317 -95 0 -95 0 0 -435
0 -436 -25 -24 c-36 -37 -86 -37 -125 1 l-25 24 -3 390 -3 390 -94 0 -95 0 0
-481 0 -481 -29 -29 c-20 -20 -39 -29 -61 -29 -22 0 -41 9 -61 29 l-29 29 0
481 0 481 -95 0 -95 0 0 -425 c0 -357 -2 -431 -15 -455 -18 -34 -71 -55 -106
-41 -56 21 -54 -10 -59 715 l-5 671 -93 3 -92 3 0 -281 c0 -361 -3 -370 -129
-370 l-61 0 0 488 0 487 176 175 c97 96 182 189 190 207 10 23 14 75 14 173
l0 140 281 0 282 0 -6 68 c-4 37 -7 79 -7 95 l0 27 -275 0 -275 0 0 185 0 185
275 0 275 0 0 45 0 45 95 0 96 0 -3 -562 -3 -563 -23 -45 c-14 -25 -93 -115
-183 -206 l-159 -161 0 -136 0 -135 31 -26 31 -26 1518 0 1518 0 31 26 31 26
0 135 0 136 -159 161 c-90 91 -169 181 -183 206 l-23 45 -3 563 -3 562 96 0
95 0 0 -45 0 -45 275 0 275 0 0 -185 0 -185 -275 0 -275 0 0 -27 c0 -16 -3
-58 -7 -95 l-6 -68 282 0 281 0 0 -140 c0 -98 4 -150 14 -173 8 -18 93 -111
190 -207 l176 -175 0 -487 0 -488 -61 0 c-126 0 -129 9 -129 370 l0 281 -92
-3 -93 -3 -5 -671 c-5 -725 -3 -694 -59 -715 -35 -14 -88 7 -106 41 -13 24
-15 98 -15 455 l0 425 -95 0 -95 0 0 -481 0 -481 -29 -29 c-20 -20 -39 -29
-61 -29 -22 0 -41 9 -61 29 l-29 29 0 481 0 481 -95 0 -94 0 -3 -390 -3 -390
-25 -24 c-39 -38 -89 -38 -125 -1 l-25 24 0 436 0 435 -95 0 -95 0 0 -317 c0
-190 -4 -333 -11 -355 -14 -51 -57 -75 -108 -59 -66 19 -66 18 -69 400 l-3
344 -67 -7 c-37 -3 -77 -6 -89 -6 l-23 0 0 -357 c0 -356 0 -358 24 -408 56
-118 186 -180 317 -152 35 7 36 6 54 -33 26 -57 80 -109 143 -138 49 -22 64
-24 137 -19 l81 6 12 -32 c18 -50 70 -105 126 -135 41 -21 65 -26 121 -26 85
0 146 24 202 82 l39 40 54 -19 c123 -43 259 13 326 133 l29 53 3 275 3 275
157 -3 157 -4 28 27 27 28 0 596 0 596 -185 185 -185 185 0 1287 0 1288 -649
0 -649 0 -12 30 c-26 62 5 60 -832 60 -640 -1 -767 -3 -789 -15z m1284 -322
c-162 -279 -182 -318 -198 -378 -29 -114 -13 -245 43 -348 51 -95 165 -188
267 -219 16 -5 77 -15 133 -23 146 -20 199 -54 258 -165 18 -33 19 -77 25
-740 6 -770 3 -740 65 -847 16 -27 90 -111 166 -189 108 -110 138 -146 138
-167 l0 -27 -1395 0 -1395 0 0 22 c0 14 48 70 143 167 141 144 177 192 213
287 17 45 19 101 24 754 l5 705 23 47 c45 92 128 142 252 153 139 12 245 59
329 146 111 115 155 281 116 434 -13 51 -115 242 -268 503 l-19 32 581 0 580
0 -86 -147z m-983 -401 c0 -9 -11 -12 -32 -10 l-33 3 -3 70 -2 70 35 -60 c19
-33 35 -66 35 -73z m1047 2 c-2 -2 -18 -7 -35 -10 -42 -9 -42 11 1 85 l32 56
3 -64 c2 -35 1 -65 -1 -67z m-1058 -203 c11 -7 10 -15 -8 -44 -12 -19 -28 -40
-36 -47 -13 -11 -15 -5 -15 44 0 51 2 56 23 56 12 0 28 -4 36 -9z m1061 -46
c0 -30 -2 -55 -5 -55 -9 0 -65 83 -65 97 0 8 12 13 35 13 l35 0 0 -55z"/>
<path d="M2435 4371 c-52 -22 -56 -35 -107 -387 -26 -186 -47 -338 -45 -340 5
-5 177 -27 181 -23 3 2 22 129 44 282 22 153 43 281 46 284 3 4 9 4 12 0 3 -3
24 -131 46 -284 22 -153 41 -280 44 -282 4 -4 176 18 181 23 5 5 -87 646 -96
668 -20 54 -45 63 -170 65 -64 2 -125 -1 -136 -6z"/>
<path d="M2470 3297 c0 -50 -2 -54 -33 -69 -123 -59 -185 -208 -142 -339 25
-75 103 -151 176 -173 30 -8 71 -18 93 -21 73 -12 104 -71 71 -135 -19 -36
-32 -39 -160 -43 l-100 -2 -3 -92 -3 -92 48 -3 48 -3 3 -47 3 -48 90 0 89 0 0
55 c0 53 1 55 39 74 94 48 158 165 148 271 -12 137 -113 238 -257 255 -60 7
-80 18 -98 52 -20 37 -14 73 17 104 29 29 31 29 140 29 l111 0 0 95 0 95 -50
0 -50 0 0 45 0 45 -90 0 -90 0 0 -53z"/>
</g>
</svg>
