<?xml version="1.0" standalone="no"?>
<!DOCTYPE svg PUBLIC "-//W3C//DTD SVG 20010904//EN"
 "http://www.w3.org/TR/2001/REC-SVG-20010904/DTD/svg10.dtd">
<svg version="1.0" xmlns="http://www.w3.org/2000/svg"
 width="512.000000pt" height="512.000000pt" viewBox="0 0 512.000000 512.000000"
 preserveAspectRatio="xMidYMid meet">

<g transform="translate(0.000000,512.000000) scale(0.100000,-0.100000)"
fill="#000000" stroke="none">
<path d="M2860 4673 c-391 -30 -764 -179 -1065 -423 -140 -115 -335 -334 -335
-377 0 -33 33 -65 66 -65 23 0 39 11 79 58 309 363 631 560 1057 646 98 20
142 23 333 23 200 -1 231 -3 346 -28 165 -35 275 -74 434 -152 435 -216 764
-613 900 -1085 93 -325 86 -701 -19 -1024 -160 -487 -541 -895 -1009 -1080
-38 -15 -71 -25 -74 -23 -2 3 37 76 86 163 50 86 91 164 91 171 0 46 -52 81
-93 62 -16 -7 -68 -88 -155 -237 -159 -276 -158 -275 -145 -305 8 -16 90 -69
248 -161 258 -150 284 -158 314 -104 30 52 11 72 -161 171 -87 50 -158 94
-158 97 0 3 45 22 100 44 207 80 420 218 592 385 180 173 288 321 393 536 372
765 189 1681 -448 2241 -185 163 -430 304 -654 377 -228 74 -497 107 -723 90z"/>
<path d="M2818 4009 c-323 -40 -608 -190 -736 -386 -82 -129 -109 -308 -68
-463 51 -195 216 -428 453 -642 l63 -57 -123 -69 c-67 -38 -174 -98 -237 -132
-131 -70 -152 -88 -153 -124 0 -34 23 -58 69 -75 20 -7 60 -24 89 -37 l53 -23
-24 -113 c-27 -124 -24 -151 20 -168 33 -12 145 5 209 32 95 40 267 149 469
295 48 35 93 63 99 63 6 0 63 -38 127 -84 293 -210 438 -289 561 -306 62 -9
78 -8 97 5 35 23 37 50 11 169 l-24 108 36 15 c122 51 162 73 173 97 22 49 2
66 -198 173 -104 55 -217 117 -251 138 l-62 37 92 83 c332 300 489 621 433
885 -59 279 -312 479 -709 561 -118 24 -350 33 -469 18z m400 -144 c113 -19
273 -69 295 -93 48 -53 59 -146 31 -258 l-17 -65 -36 34 c-74 72 -224 128
-390 147 -213 25 -465 -35 -584 -140 -19 -16 -37 -30 -40 -30 -11 0 -29 136
-24 185 5 53 34 122 59 142 21 17 175 63 262 77 111 19 331 19 444 1z m-879
-418 c28 -104 69 -189 157 -329 172 -273 510 -549 1039 -849 104 -60 197 -112
205 -117 10 -6 0 -15 -43 -35 -70 -32 -76 -50 -52 -163 10 -47 16 -87 13 -89
-23 -23 -457 264 -907 599 -248 185 -472 426 -555 599 -102 212 -83 406 56
553 l53 56 7 -77 c4 -42 16 -109 27 -148z m1426 154 c149 -167 140 -399 -26
-650 -62 -94 -198 -244 -321 -353 l-69 -61 -114 78 -115 78 125 120 c198 189
307 338 385 529 40 96 70 220 70 284 0 33 2 35 17 23 9 -8 31 -29 48 -48z
m-555 -125 c77 -22 176 -72 200 -103 11 -14 20 -40 20 -59 0 -102 -150 -302
-353 -471 l-77 -65 -85 72 c-203 172 -345 365 -345 469 0 68 101 130 270 167
81 17 292 11 370 -10z m-454 -1188 c63 -45 114 -85 114 -89 0 -8 -126 -100
-271 -197 -100 -68 -248 -146 -257 -137 -2 2 3 38 13 79 25 117 21 136 -44
168 -30 15 -56 30 -58 32 -2 2 65 42 149 88 85 47 172 97 194 111 21 14 41 26
43 26 2 1 55 -36 117 -81z"/>
<path d="M957 3500 c-317 -54 -573 -272 -671 -573 -50 -152 -54 -322 -11 -485
74 -287 321 -525 621 -599 101 -24 295 -22 399 6 243 64 436 222 546 447 219
445 13 972 -452 1157 -121 49 -304 68 -432 47z m305 -149 c251 -64 449 -265
514 -521 22 -86 22 -245 0 -330 -63 -245 -238 -431 -481 -512 -60 -19 -90 -23
-205 -23 -122 0 -144 3 -224 29 -154 51 -303 170 -388 311 -119 196 -130 457
-29 669 87 181 273 333 466 380 90 22 256 20 347 -3z"/>
<path d="M1055 3198 c-29 -17 -35 -28 -35 -73 0 -39 -2 -41 -48 -57 -150 -53
-215 -220 -138 -352 33 -57 95 -88 234 -117 59 -13 114 -30 128 -42 90 -70 9
-186 -123 -175 -66 6 -101 30 -129 89 -29 59 -40 69 -74 69 -38 0 -70 -32 -70
-67 0 -45 44 -127 86 -162 22 -17 60 -39 87 -49 46 -16 47 -18 47 -58 0 -60
34 -86 92 -71 20 5 30 16 37 45 6 20 11 44 11 53 0 10 18 23 47 34 59 23 121
79 144 130 41 88 15 216 -52 268 -44 33 -71 43 -188 68 -53 12 -108 27 -123
35 -53 28 -63 84 -23 132 34 40 75 55 138 50 71 -6 113 -36 128 -91 15 -53 40
-79 73 -79 63 0 85 74 47 157 -23 51 -97 117 -149 134 -37 13 -40 16 -45 58
-3 25 -11 51 -18 58 -21 20 -61 26 -84 13z"/>
<path d="M1760 1580 c-60 -16 -159 -60 -332 -148 -5 -2 -13 9 -19 25 -14 38
-57 83 -96 99 -44 19 -242 19 -286 0 -18 -7 -41 -23 -51 -35 -19 -20 -26 -21
-273 -21 -240 0 -254 -1 -273 -20 -19 -19 -20 -33 -20 -464 0 -433 0 -444 21
-470 l20 -26 253 0 c246 0 253 -1 272 -21 34 -38 77 -49 193 -49 60 0 121 4
134 9 43 17 96 71 108 112 7 21 14 39 17 39 3 0 33 -11 66 -23 l61 -24 395 9
c217 4 414 11 438 14 35 4 109 49 390 236 191 127 360 242 376 257 130 119 83
359 -81 407 -98 29 -130 16 -387 -160 -195 -133 -200 -136 -220 -119 -12 10
-66 59 -121 109 -247 224 -323 272 -443 280 -48 3 -88 -2 -142 -16z m212 -150
c29 -11 83 -43 119 -72 103 -83 203 -178 187 -178 -37 0 -177 43 -244 75 -40
19 -84 35 -98 35 -34 0 -56 -25 -56 -66 0 -30 6 -38 46 -64 107 -67 316 -122
475 -124 l97 -1 190 130 c271 185 291 196 332 193 26 -2 40 -11 57 -37 28 -41
29 -76 4 -116 -12 -19 -140 -112 -359 -259 l-341 -229 -406 -10 -406 -9 -75
33 -74 33 2 255 3 255 75 43 c213 121 358 156 472 113z m-702 -10 c19 -19 20
-33 20 -408 0 -319 -3 -392 -14 -408 -12 -16 -29 -20 -99 -22 -137 -6 -127
-40 -127 432 l0 395 22 15 c16 11 46 16 100 16 65 0 81 -3 98 -20z m-355 -410
l0 -355 -182 -3 -183 -2 0 360 0 360 183 -2 182 -3 0 -355z"/>
</g>
</svg>
